<?xml version="1.0" standalone="no"?>
<!DOCTYPE svg PUBLIC "-//W3C//DTD SVG 20010904//EN"
 "http://www.w3.org/TR/2001/REC-SVG-20010904/DTD/svg10.dtd">
<svg version="1.0" xmlns="http://www.w3.org/2000/svg"
 width="700.000000pt" height="700.000000pt" viewBox="0 0 700.000000 700.000000"
 preserveAspectRatio="xMidYMid meet">
<metadata>
Created by potrace 1.11, written by Peter Selinger 2001-2013
</metadata>
<g transform="translate(0.000000,700.000000) scale(0.100000,-0.100000)"
fill="#000000" stroke="none">
<path d="M4560 6984 c-316 -52 -546 -152 -775 -338 -44 -35 -749 -734 -1566
-1553 -1127 -1129 -1503 -1511 -1556 -1583 -172 -231 -277 -443 -357 -717 -33
-112 -40 -145 -52 -222 -2 -19 -6 -37 -9 -40 -18 -29 -27 -440 -13 -576 49
-464 253 -910 571 -1252 274 -294 603 -498 988 -613 108 -32 175 -48 244 -56
22 -2 45 -7 52 -9 75 -26 467 -27 648 -1 286 41 630 172 865 329 186 125 256
191 1253 1187 l1019 1016 -223 222 -222 222 -979 -977 c-1128 -1126 -997 -997
-1073 -1058 -169 -137 -392 -243 -616 -294 -129 -30 -149 -32 -329 -35 -158
-3 -219 3 -395 39 -76 15 -249 82 -344 131 -398 209 -677 559 -792 993 -11 40
-22 92 -25 115 -3 22 -10 59 -14 80 -17 77 -5 382 19 496 28 136 25 122 60
222 62 174 167 354 289 497 75 88 2935 2942 2976 2970 214 146 365 193 596
187 69 -2 134 -6 145 -9 91 -23 118 -31 174 -53 132 -52 215 -107 322 -213 80
-81 128 -147 173 -237 108 -222 129 -464 60 -694 -34 -111 -95 -227 -165 -315
-31 -38 -668 -680 -1415 -1427 -1117 -1115 -1368 -1360 -1409 -1379 -76 -35
-190 -34 -267 4 -104 51 -169 150 -174 265 -3 77 10 122 53 187 18 28 532 549
1143 1160 l1111 1109 -222 222 -222 222 -1126 -1127 c-620 -619 -1146 -1150
-1169 -1179 -126 -161 -192 -351 -197 -564 -9 -446 291 -828 733 -935 72 -17
286 -23 357 -10 149 28 273 80 392 164 64 44 406 381 1477 1453 897 898 1413
1422 1449 1470 164 225 275 490 302 720 4 30 9 66 11 80 5 32 6 299 0 308 -2
4 -7 34 -11 67 -35 312 -203 644 -446 885 -77 76 -239 210 -255 210 -3 0 -30
16 -60 35 -30 19 -56 35 -59 35 -2 0 -37 15 -77 34 -129 61 -298 111 -443 132
-86 12 -347 11 -425 -2z"/>
</g>
</svg>
